<?xml version="1.0" encoding="iso-8859-1"?>
<!-- Generator: Adobe Illustrator 19.0.0, SVG Export Plug-In . SVG Version: 6.00 Build 0)  -->
<svg version="1.1" id="Capa_1" xmlns="http://www.w3.org/2000/svg" xmlns:xlink="http://www.w3.org/1999/xlink" x="0px" y="0px"
	 viewBox="0 0 512.011 512.011" style="enable-background:new 0 0 512.011 512.011;" xml:space="preserve">
<g>
	<g>
		<path d="M437.349,234.677c-5.888,0-10.667,4.779-10.667,10.667v245.333H85.349V245.344c0-5.888-4.779-10.667-10.667-10.667
			s-10.667,4.779-10.667,10.667v256c0,5.888,4.779,10.667,10.667,10.667h362.667c5.888,0,10.667-4.779,10.667-10.667v-256
			C448.016,239.456,443.237,234.677,437.349,234.677z"/>
	</g>
</g>
<g>
	<g>
		<path d="M508.709,237.643L263.376,2.976c-4.117-3.968-10.624-3.968-14.741,0L3.301,237.643c-3.136,3.029-4.139,7.659-2.517,11.691
			c1.621,4.032,5.547,6.677,9.899,6.677h490.667c4.352,0,8.277-2.645,9.877-6.677C512.848,245.28,511.845,240.672,508.709,237.643z
			 M37.264,234.677L256.016,25.44l218.752,209.237H37.264z"/>
	</g>
</g>
<g>
	<g>
		<path d="M373.349,320.011h-85.333c-5.888,0-10.667,4.779-10.667,10.667v170.667c0,5.888,4.779,10.667,10.667,10.667h85.333
			c5.888,0,10.667-4.779,10.667-10.667V330.677C384.016,324.789,379.237,320.011,373.349,320.011z M362.683,490.677h-64V341.344h64
			V490.677z"/>
	</g>
</g>
<g>
	<g>
		<path d="M202.683,320.011h-64c-5.888,0-10.667,4.779-10.667,10.667v64c0,5.888,4.779,10.667,10.667,10.667h64
			c5.888,0,10.667-4.779,10.667-10.667v-64C213.349,324.789,208.571,320.011,202.683,320.011z M192.016,384.011h-42.667v-42.667
			h42.667V384.011z"/>
	</g>
</g>
</svg>
