<?xml version="1.0" encoding="iso-8859-1"?>
<!-- Generator: Adobe Illustrator 19.0.0, SVG Export Plug-In . SVG Version: 6.00 Build 0)  -->
<svg version="1.1" id="Layer_1" xmlns="http://www.w3.org/2000/svg" xmlns:xlink="http://www.w3.org/1999/xlink" x="0px" y="0px"
	 viewBox="0 0 511.995 511.995" style="enable-background:new 0 0 511.995 511.995;" xml:space="preserve">
<g>
	<g>
		<g>
			<path d="M213.341,149.328c0,23.531,19.136,42.667,42.667,42.667s42.667-19.136,42.667-42.667
				c0-23.531-19.136-42.667-42.667-42.667S213.341,125.797,213.341,149.328z M277.341,149.328c0,11.755-9.579,21.333-21.333,21.333
				s-21.333-9.579-21.333-21.333c0-11.755,9.579-21.333,21.333-21.333S277.341,137.573,277.341,149.328z"/>
			<path d="M117.341,405.328h85.333c5.888,0,10.667-4.779,10.667-10.667v-85.333c0-5.888-4.779-10.667-10.667-10.667h-85.333
				c-5.888,0-10.667,4.779-10.667,10.667v85.333C106.674,400.549,111.453,405.328,117.341,405.328z M128.008,319.995h64v64h-64
				V319.995z"/>
			<path d="M508.722,237.627l-103.381-98.88c0-0.043,0-0.064,0-0.085V53.328c0-5.888-4.779-10.667-10.667-10.667h-42.667
				c-5.888,0-10.667,4.779-10.667,10.667v24.213L263.368,2.96c-4.117-3.947-10.624-3.947-14.741,0L3.293,237.627
				c-3.136,3.008-4.139,7.637-2.517,11.669c1.621,4.053,5.547,6.699,9.899,6.699h53.333v245.333c0,5.888,4.779,10.667,10.667,10.667
				h362.667c5.888,0,10.667-4.779,10.645-10.667V255.995h53.333c4.352,0,8.277-2.645,9.899-6.699
				C512.84,245.264,511.837,240.635,508.722,237.627z M362.674,95.995v-32h21.333v54.357l-21.675-20.715
				C362.44,97.083,362.674,96.571,362.674,95.995z M341.341,490.661h-85.333v-128h85.333V490.661z M426.674,490.661h-64V351.995
				c0-5.888-4.779-10.667-10.667-10.667H245.341c-5.888,0-10.667,4.779-10.667,10.667v138.667H85.341V255.995h341.333V490.661z
				 M37.256,234.661L256.008,25.424L474.76,234.661H37.256z"/>
		</g>
	</g>
</g>
</svg>
