<?xml version="1.0" encoding="iso-8859-1"?>
<!-- Generator: Adobe Illustrator 19.0.0, SVG Export Plug-In . SVG Version: 6.00 Build 0)  -->
<svg version="1.1" id="Capa_1" xmlns="http://www.w3.org/2000/svg" xmlns:xlink="http://www.w3.org/1999/xlink" x="0px" y="0px"
	 viewBox="0 0 480 480" style="enable-background:new 0 0 480 480;" xml:space="preserve">
<g>
	<g>
		<path d="M464,432h-16V192c0-8.832-7.168-16-16-16h-64c-8.832,0-16,7.168-16,16v240h-64V288c0-8.832-7.168-16-16-16h-64
			c-8.832,0-16,7.168-16,16v144h-64V192c0-8.832-7.168-16-16-16H48c-8.832,0-16,7.168-16,16v240H16c-8.832,0-16,7.168-16,16
			c0,8.832,7.168,16,16,16h448c8.832,0,16-7.168,16-16C480,439.168,472.832,432,464,432z M96,432H64V208h32V432z M256,432h-32V304
			h32V432z M416,432h-32V208h32V432z"/>
	</g>
</g>
<g>
	<g>
		<path d="M400,16c-26.464,0-48,21.536-48,48c0,3.264,0.352,6.464,0.96,9.568l-82.592,49.568C262.048,116.288,251.584,112,240,112
			c-11.584,0-22.048,4.288-30.368,11.136L127.04,73.568C127.648,70.464,128,67.264,128,64c0-26.464-21.536-48-48-48S32,37.536,32,64
			s21.536,48,48,48c11.584,0,22.048-4.288,30.368-11.136l82.592,49.568c-0.608,3.104-0.96,6.304-0.96,9.568
			c0,26.464,21.536,48,48,48s48-21.536,48-48c0-3.264-0.352-6.464-0.96-9.568l82.592-49.568C377.952,107.712,388.416,112,400,112
			c26.464,0,48-21.536,48-48S426.464,16,400,16z M93.536,72c0,0.032-0.032,0.032-0.064,0.064c0,0.032,0,0.032-0.032,0.064
			C90.624,76.768,85.792,80,80,80c-8.8,0-16-7.168-16-16c0-8.832,7.2-16,16-16s16,7.168,16,16C96,66.976,94.976,69.6,93.536,72z
			 M240,176c-8.8,0-16-7.168-16-16c0-2.976,1.056-5.632,2.464-8.032c0-0.032,0.032-0.032,0.064-0.064c0-0.032,0-0.032,0.032-0.064
			c2.816-4.576,7.648-7.84,13.44-7.84s10.624,3.232,13.44,7.872c0,0.032,0,0.032,0.032,0.064c0,0.032,0.032,0.032,0.064,0.064
			c1.408,2.368,2.464,5.024,2.464,8C256,168.832,248.8,176,240,176z M400,80c-5.792,0-10.624-3.264-13.44-7.872
			c0-0.032,0-0.032-0.032-0.064c-0.032-0.032-0.064-0.032-0.064-0.064c-1.44-2.4-2.464-5.024-2.464-8c0-8.832,7.2-16,16-16
			s16,7.168,16,16C416,72.832,408.8,80,400,80z"/>
	</g>
</g>
</svg>
